<svg xmlns="http://www.w3.org/2000/svg" width="67" height="44" viewBox="0 0 67 44" fill="none">
<path d="M3.272 43C2.56267 43 1.96533 42.72 1.48 42.16C0.994667 41.6 0.752 40.8907 0.752 40.032V14.832C0.752 13.6 0.92 12.312 1.256 10.968C1.62933 9.624 2.30133 8.37333 3.272 7.216C4.28 6.02133 5.69867 5.05067 7.528 4.304C9.35733 3.55733 11.7467 3.184 14.696 3.184C18.616 3.184 21.6587 4.15466 23.824 6.096C25.9893 8.03733 27.072 10.9493 27.072 14.832C27.072 16.4 26.7733 17.8373 26.176 19.144C25.616 20.4507 24.7573 21.44 23.6 22.112C25.4293 22.9333 26.736 24.072 27.52 25.528C28.3413 26.984 28.752 29 28.752 31.576C28.752 35.3093 27.5947 38.1467 25.28 40.088C23.0027 42.0293 19.4747 43 14.696 43H3.272ZM8.424 21.104C8.90933 20.5067 9.69333 20.04 10.776 19.704C11.896 19.368 13.2027 19.2 14.696 19.2C16.4507 19.2 17.6453 18.8827 18.28 18.248C18.952 17.576 19.288 16.4373 19.288 14.832C19.288 12.9653 18.896 11.64 18.112 10.856C17.3653 10.0347 16.2267 9.624 14.696 9.624C12.5307 9.624 11 10.016 10.104 10.8C9.24533 11.584 8.816 12.928 8.816 14.832C8.816 15.9893 8.79733 16.9227 8.76 17.632C8.76 18.304 8.72267 18.9013 8.648 19.424C8.61067 19.9467 8.536 20.5067 8.424 21.104ZM8.816 36.504H14.696C16.936 36.504 18.4853 36.112 19.344 35.328C20.24 34.544 20.688 33.2933 20.688 31.576C20.688 29.1493 20.2213 27.4133 19.288 26.368C18.392 25.3227 16.8613 24.8 14.696 24.8C13.1653 24.8 11.9707 25.0053 11.112 25.416C10.2533 25.7893 9.656 26.4613 9.32 27.432C8.984 28.4027 8.816 29.784 8.816 31.576V36.504ZM34.0541 9.736C32.6727 9.736 31.5154 9.288 30.5821 8.392C29.6487 7.496 29.1821 6.39467 29.1821 5.088C29.1821 3.70666 29.6487 2.568 30.5821 1.672C31.5154 0.775998 32.6727 0.327999 34.0541 0.327999C35.4727 0.327999 36.6301 0.775998 37.5261 1.672C38.4594 2.568 38.9261 3.70666 38.9261 5.088C38.9261 6.39467 38.4594 7.496 37.5261 8.392C36.6301 9.288 35.4727 9.736 34.0541 9.736ZM38.0861 39.696C38.0861 42.1973 36.7794 43.448 34.1661 43.448C32.8967 43.448 31.8887 43.1493 31.1421 42.552C30.3954 41.9173 30.0221 40.9653 30.0221 39.696V18.36C30.0221 17.1653 30.3207 16.232 30.9181 15.56C31.5527 14.888 32.5981 14.552 34.0541 14.552C35.5101 14.552 36.5367 14.888 37.1341 15.56C37.7687 16.232 38.0861 17.1653 38.0861 18.36V39.696ZM53.0368 43.448C49.0048 43.448 45.8687 42.1973 43.6287 39.696C41.3888 37.1947 40.2688 33.424 40.2688 28.384V4.696C40.2688 1.784 41.6314 0.327999 44.3568 0.327999C46.8581 0.327999 48.1088 1.784 48.1088 4.696V9.512C48.1088 10.968 48.0714 12.1627 47.9968 13.096C47.9594 14.0293 47.8661 14.8507 47.7168 15.56C47.6048 16.232 47.4181 16.96 47.1568 17.744C47.8661 16.5867 48.8368 15.7653 50.0688 15.28C51.3381 14.7947 52.9434 14.552 54.8848 14.552C57.1248 14.552 59.1034 14.9813 60.8208 15.84C62.5381 16.6613 63.8821 18.0613 64.8528 20.04C65.8234 22.0187 66.3088 24.688 66.3088 28.048C66.3088 33.088 65.1141 36.9147 62.7248 39.528C60.3728 42.1413 57.1434 43.448 53.0368 43.448ZM53.4288 36.728C54.9968 36.728 56.2101 36.168 57.0688 35.048C57.9648 33.928 58.4128 31.8373 58.4128 28.776C58.4128 26.7227 58.2074 25.1733 57.7968 24.128C57.4234 23.0453 56.8634 22.2987 56.1168 21.888C55.3701 21.4773 54.4741 21.272 53.4288 21.272C52.3834 21.272 51.4874 21.4773 50.7408 21.888C49.9941 22.2987 49.4154 23.0453 49.0048 24.128C48.6314 25.1733 48.4448 26.7227 48.4448 28.776C48.4448 31.8373 48.8741 33.928 49.7328 35.048C50.6288 36.168 51.8608 36.728 53.4288 36.728Z" fill="#23AD61"/>
<svg xmlns="http://www.w3.org/2000/svg" width="67" height="44" viewBox="0 0 67 44" fill="none">
<path d="M3.272 43C2.56267 43 1.96533 42.72 1.48 42.16C0.994667 41.6 0.752 40.8907 0.752 40.032V14.832C0.752 13.6 0.92 12.312 1.256 10.968C1.62933 9.624 2.30133 8.37333 3.272 7.216C4.28 6.02133 5.69867 5.05067 7.528 4.304C9.35733 3.55733 11.7467 3.184 14.696 3.184C18.616 3.184 21.6587 4.15466 23.824 6.096C25.9893 8.03733 27.072 10.9493 27.072 14.832C27.072 16.4 26.7733 17.8373 26.176 19.144C25.616 20.4507 24.7573 21.44 23.6 22.112C25.4293 22.9333 26.736 24.072 27.52 25.528C28.3413 26.984 28.752 29 28.752 31.576C28.752 35.3093 27.5947 38.1467 25.28 40.088C23.0027 42.0293 19.4747 43 14.696 43H3.272ZM8.424 21.104C8.90933 20.5067 9.69333 20.04 10.776 19.704C11.896 19.368 13.2027 19.2 14.696 19.2C16.4507 19.2 17.6453 18.8827 18.28 18.248C18.952 17.576 19.288 16.4373 19.288 14.832C19.288 12.9653 18.896 11.64 18.112 10.856C17.3653 10.0347 16.2267 9.624 14.696 9.624C12.5307 9.624 11 10.016 10.104 10.8C9.24533 11.584 8.816 12.928 8.816 14.832C8.816 15.9893 8.79733 16.9227 8.76 17.632C8.76 18.304 8.72267 18.9013 8.648 19.424C8.61067 19.9467 8.536 20.5067 8.424 21.104ZM8.816 36.504H14.696C16.936 36.504 18.4853 36.112 19.344 35.328C20.24 34.544 20.688 33.2933 20.688 31.576C20.688 29.1493 20.2213 27.4133 19.288 26.368C18.392 25.3227 16.8613 24.8 14.696 24.8C13.1653 24.8 11.9707 25.0053 11.112 25.416C10.2533 25.7893 9.656 26.4613 9.32 27.432C8.984 28.4027 8.816 29.784 8.816 31.576V36.504ZM34.0541 9.736C32.6727 9.736 31.5154 9.288 30.5821 8.392C29.6487 7.496 29.1821 6.39467 29.1821 5.088C29.1821 3.70666 29.6487 2.568 30.5821 1.672C31.5154 0.775998 32.6727 0.327999 34.0541 0.327999C35.4727 0.327999 36.6301 0.775998 37.5261 1.672C38.4594 2.568 38.9261 3.70666 38.9261 5.088C38.9261 6.39467 38.4594 7.496 37.5261 8.392C36.6301 9.288 35.4727 9.736 34.0541 9.736ZM38.0861 39.696C38.0861 42.1973 36.7794 43.448 34.1661 43.448C32.8967 43.448 31.8887 43.1493 31.1421 42.552C30.3954 41.9173 30.0221 40.9653 30.0221 39.696V18.36C30.0221 17.1653 30.3207 16.232 30.9181 15.56C31.5527 14.888 32.5981 14.552 34.0541 14.552C35.5101 14.552 36.5367 14.888 37.1341 15.56C37.7687 16.232 38.0861 17.1653 38.0861 18.36V39.696ZM53.0368 43.448C49.0048 43.448 45.8687 42.1973 43.6287 39.696C41.3888 37.1947 40.2688 33.424 40.2688 28.384V4.696C40.2688 1.784 41.6314 0.327999 44.3568 0.327999C46.8581 0.327999 48.1088 1.784 48.1088 4.696V9.512C48.1088 10.968 48.0714 12.1627 47.9968 13.096C47.9594 14.0293 47.8661 14.8507 47.7168 15.56C47.6048 16.232 47.4181 16.96 47.1568 17.744C47.8661 16.5867 48.8368 15.7653 50.0688 15.28C51.3381 14.7947 52.9434 14.552 54.8848 14.552C57.1248 14.552 59.1034 14.9813 60.8208 15.84C62.5381 16.6613 63.8821 18.0613 64.8528 20.04C65.8234 22.0187 66.3088 24.688 66.3088 28.048C66.3088 33.088 65.1141 36.9147 62.7248 39.528C60.3728 42.1413 57.1434 43.448 53.0368 43.448ZM53.4288 36.728C54.9968 36.728 56.2101 36.168 57.0688 35.048C57.9648 33.928 58.4128 31.8373 58.4128 28.776C58.4128 26.7227 58.2074 25.1733 57.7968 24.128C57.4234 23.0453 56.8634 22.2987 56.1168 21.888C55.3701 21.4773 54.4741 21.272 53.4288 21.272C52.3834 21.272 51.4874 21.4773 50.7408 21.888C49.9941 22.2987 49.4154 23.0453 49.0048 24.128C48.6314 25.1733 48.4448 26.7227 48.4448 28.776C48.4448 31.8373 48.8741 33.928 49.7328 35.048C50.6288 36.168 51.8608 36.728 53.4288 36.728Z" fill="#23AD61"/>
</svg></svg>